<?xml version="1.0" encoding="UTF-8"?>
<svg width="176px" height="42px" viewBox="0 0 176 42" version="1.1" xmlns="http://www.w3.org/2000/svg" xmlns:xlink="http://www.w3.org/1999/xlink">
    <!-- Generator: Sketch 52.2 (67145) - http://www.bohemiancoding.com/sketch -->
    <title>sparrow-icon-header</title>
    <desc>Created with Sketch.</desc>
    <defs>
        <linearGradient x1="7.20736054%" y1="102.245693%" x2="87.3908374%" y2="13.8655676%" id="linearGradient-1">
            <stop stop-color="#0E7B79" offset="0%"></stop>
            <stop stop-color="#34B3AA" offset="100%"></stop>
        </linearGradient>
        <path d="M7.12086486,0.398052766 C6.98672432,0.457960851 6.85543784,0.526733617 6.72843243,0.60251234 L6.52436757,0.724044255 C6.49582703,0.73691234 6.46871351,0.749780426 6.44302703,0.766794894 L0.117016216,4.30137191 C1.8851027,4.60148426 3.62464865,5.0776034 5.28856216,5.72258043 C5.57111351,5.83124426 5.85223784,5.94562723 6.13050811,6.06429957 C8.45085405,7.05514213 10.614227,8.37054638 12.5621189,9.97476766 C14.0276757,11.1815081 15.3689384,12.5539609 16.5490897,14.0495183 C16.5563676,14.0568102 16.5620757,14.0639591 16.5677838,14.0709651 C16.6576865,14.1826315 16.7490162,14.299874 16.8360649,14.4185464 L16.8517622,14.4371336 C18.7097514,16.9535591 19.3676108,20.1346928 18.6969081,23.1443949 C18.7482811,22.9815421 18.7996541,22.8184034 18.848173,22.6554077 C18.848173,22.652834 18.8496,22.6484017 18.851027,22.6453991 C18.8966919,22.4925549 18.9409297,22.3395677 18.9837405,22.1864374 C18.9865946,22.1749991 18.9894486,22.1637038 18.9923027,22.1535523 C19.0308324,22.0120034 19.0693622,21.8718843 19.1050378,21.7317651 C19.1177384,21.6847251 19.1292973,21.6375421 19.1422832,21.591646 C19.1735351,21.4645379 19.2050724,21.335714 19.2348973,21.208606 C19.2477405,21.161423 19.2591568,21.114097 19.2691459,21.066914 C19.2976865,20.9483847 19.323373,20.8295694 19.3489168,20.71104 C19.3576216,20.6751523 19.3661838,20.6381209 19.3733189,20.6008034 C19.3961514,20.4994315 19.4161297,20.3964868 19.4375351,20.2935421 C19.4460973,20.2477889 19.4560865,20.2018928 19.4646486,20.1562826 C19.4774919,20.0933719 19.4889081,20.0303183 19.5003243,19.9688374 C19.5245838,19.8401566 19.5488432,19.7116187 19.5702486,19.5829379 C19.5959351,19.4328102 19.6216216,19.2826826 19.6444541,19.1324119 C20.0368865,16.6088374 20.062573,14.0439421 19.7200865,11.5103591 C19.4175568,9.26273362 18.8167784,7.03941447 17.950573,4.92761872 C17.4596757,4.64738043 16.9630703,4.36571234 16.472173,4.08676085 C13.1443459,2.19386553 10.0419892,0.433654468 9.95922162,0.398052766 C9.67795459,0.279237447 9.33132973,0.164997447 8.95744865,0.120674043 C8.92020324,0.114954894 8.88181622,0.11195234 8.85898378,0.110665532 C8.74639135,0.0995131915 8.63465514,0.09408 8.52406054,0.09408 C8.02816865,0.09408 7.55496649,0.20388766 7.12086486,0.398052766" id="path-2"></path>
        <linearGradient x1="115.618945%" y1="80.7086662%" x2="20.598841%" y2="0.173323636%" id="linearGradient-4">
            <stop stop-color="#0E7B79" offset="0%"></stop>
            <stop stop-color="#34B3AA" offset="100%"></stop>
        </linearGradient>
        <linearGradient x1="99.7636802%" y1="44.9610303%" x2="-1.14129316%" y2="51.3137586%" id="linearGradient-5">
            <stop stop-color="#0E7B79" offset="0%"></stop>
            <stop stop-color="#34B3AA" offset="100%"></stop>
        </linearGradient>
        <linearGradient x1="88.8487906%" y1="-3.2432806%" x2="12.8759335%" y2="87.2128141%" id="linearGradient-6">
            <stop stop-color="#0E7B79" offset="0%"></stop>
            <stop stop-color="#34B3AA" offset="100%"></stop>
        </linearGradient>
        <linearGradient x1="-14.2911213%" y1="16.8642067%" x2="77.1388275%" y2="100.458951%" id="linearGradient-7">
            <stop stop-color="#0E7B79" offset="0%"></stop>
            <stop stop-color="#34B3AA" offset="100%"></stop>
        </linearGradient>
        <path d="M21.0716238,4.79893787 C19.1221622,6.29149277 16.9787676,7.50552511 14.6998054,8.40486128 C12.9759568,9.08529702 11.1679135,9.58872511 9.32419459,9.89898894 L9.31563243,9.90041872 C9.30992432,9.90184851 9.30278919,9.90184851 9.29579676,9.90313532 C9.14010811,9.93187404 8.98028108,9.95761021 8.82173838,9.97762723 L8.80903784,9.98034383 C8.80047568,9.9819166 8.79191351,9.98334638 8.78477838,9.98334638 C7.03238919,10.2121123 5.23005405,9.99335489 3.57184865,9.35266723 C2.26041081,8.84523574 1.06584649,8.08587574 0.0570810811,7.12806128 C0.125578378,7.20669957 0.195502703,7.28519489 0.265427027,7.3624034 C0.33107027,7.43675234 0.398140541,7.50981447 0.465210811,7.58273362 C0.569383784,7.6984034 0.676410811,7.81292936 0.784864865,7.92731234 C0.882045405,8.03011404 0.980367568,8.13162894 1.08025946,8.23314383 C1.1459027,8.30034383 1.21154595,8.36768681 1.27861622,8.43345702 C1.36851892,8.52353362 1.45842162,8.61361021 1.55117838,8.70225702 C1.56116757,8.71226553 1.57115676,8.72213106 1.58114595,8.73228255 C1.68817297,8.83665702 1.79805405,8.94088851 1.90793514,9.04254638 C1.91364324,9.04826553 1.91792432,9.05398468 1.92363243,9.05827404 C1.94218378,9.07528851 1.96230486,9.09401872 1.98214054,9.11103319 C2.06490811,9.18981447 2.1491027,9.26702298 2.23472432,9.34265872 C2.30179459,9.40413957 2.36886486,9.46433362 2.43593514,9.52438468 C2.44021622,9.52867404 2.44592432,9.53282043 2.45020541,9.53710979 C2.55152432,9.62718638 2.65284324,9.71583319 2.75558919,9.80305021 C2.89258378,9.92186553 3.0308627,10.0389651 3.17071135,10.1533481 C5.11303784,11.753423 7.27212973,13.0658247 9.58534054,14.0538077 C9.70663784,14.105423 9.82936216,14.1567523 9.95208649,14.2067949 C10.1975351,14.30688 10.4444108,14.4042485 10.6928562,14.4956119 C10.8040216,14.5372187 10.9167568,14.5785396 11.0280649,14.6185736 C11.0681643,14.6328715 11.1078357,14.6473123 11.1479351,14.6614672 C11.3591351,14.7359591 11.5717622,14.8074485 11.7843892,14.8773651 C11.7972324,14.8817974 11.8100757,14.884657 11.8214919,14.8888034 C11.9484973,14.9302672 12.0755027,14.9704443 12.2025081,15.0089055 C12.3266595,15.0476528 12.4508108,15.0846843 12.5749622,15.1204289 C12.8489514,15.20064 13.1242249,15.2762757 13.3997838,15.3464783 C13.6438054,15.4093889 13.887827,15.4680102 14.1332757,15.5237719 C14.2631351,15.5537974 14.3929946,15.5823932 14.5241384,15.6094162 C14.6541405,15.6380119 14.785427,15.6637481 14.9167135,15.6896272 C15.046573,15.7152204 15.1778595,15.7409566 15.3091459,15.7638332 C15.4404324,15.7881396 15.5702919,15.8111591 15.7015784,15.832606 L15.7030054,15.832606 C15.7429622,15.8111591 15.7814919,15.7881396 15.8214486,15.765263 C16.3380324,15.4708698 16.8603243,15.1719013 17.3783351,14.8745055 C20.9872865,12.8098928 24.4307027,10.8353566 24.4920649,10.7896034 L24.4920649,10.7883166 C24.7346595,10.5995847 25.0015135,10.3522315 25.2227027,10.046257 L25.2241297,10.046257 C25.2469622,10.0176613 25.2683676,9.98463319 25.2812108,9.96475915 C25.6351135,9.45432511 25.8263351,8.88369702 25.8791351,8.30034383 C25.8905514,8.15464851 25.8948324,8.00580766 25.8905514,7.85725277 L25.8834162,7.61976511 C25.88784,7.58973957 25.88784,7.55842723 25.88784,7.52697191 L25.88784,0.0190161702 C24.4892108,1.80925277 22.8652541,3.42476936 21.0716238,4.79893787" id="path-8"></path>
        <linearGradient x1="1.37536715%" y1="64.7142463%" x2="103.165699%" y2="45.73037%" id="linearGradient-10">
            <stop stop-color="#0E7B79" offset="0%"></stop>
            <stop stop-color="#34B3AA" offset="100%"></stop>
        </linearGradient>
        <path d="M1.53334054,2.99997957 L1.53334054,3.13995574 L0.0313945946,4.41990128 L1.53334054,4.65796085 C1.53334054,8.41658553 4.19974054,11.5521089 7.74147892,12.2715779 C8.24279351,12.3739506 8.76280216,12.4268528 9.29337081,12.4268528 C10.8284238,12.4268528 12.2594465,11.9810451 13.4637146,11.2102468 C10.1796973,10.1799421 7.78643027,7.13006298 7.74147892,3.51127149 C7.73990919,3.47552681 7.73990919,3.44135489 7.73990919,3.40561021 C7.73990919,3.36986553 7.73990919,3.33555064 7.74147892,3.29994894 L7.74147892,3.1429583 C7.74147892,2.28522894 7.39385514,1.50842553 6.83203459,0.945804255 C6.27164108,0.383325957 5.49548108,0.0354587234 4.63740973,0.0354587234 C2.92383568,0.0354587234 1.53334054,1.28452085 1.53334054,2.99997957" id="path-11"></path>
        <linearGradient x1="11.9122737%" y1="12.9731587%" x2="88.9866093%" y2="101.494506%" id="linearGradient-13">
            <stop stop-color="#0E7B79" offset="0%"></stop>
            <stop stop-color="#34B3AA" offset="100%"></stop>
        </linearGradient>
        <path d="M0.137565405,0.440374468 L0.137565405,0.651697021 C0.182516757,4.27048851 2.57578378,7.32036766 5.85994378,8.35067234 C6.82218811,7.73700766 7.63844757,6.91645277 8.25007135,5.9499166 C7.76887784,6.06043915 7.26756324,6.11948936 6.75226378,6.11948936 C3.26946162,6.11948936 0.415264865,3.42662809 0.154547027,0.00529021277 C0.143701622,0.149841702 0.138992432,0.294250213 0.137565405,0.440374468" id="path-14"></path>
        <linearGradient x1="4.81666291%" y1="53.3907866%" x2="96.7192216%" y2="43.1923158%" id="linearGradient-16">
            <stop stop-color="#0E7B79" offset="0%"></stop>
            <stop stop-color="#34B3AA" offset="100%"></stop>
        </linearGradient>
        <path d="M4.65096649,4.71029106 C2.23129946,4.71029106 0.244592432,2.86443574 0.0165535135,0.502570213 C0.0149837838,0.525875745 0.0134140541,0.549324255 0.0118443243,0.572629787 L0.0118443243,0.577205106 C0.272562162,3.99854298 3.12675892,6.69140426 6.60956108,6.69140426 C7.12486054,6.69140426 7.62617514,6.63235404 8.10736865,6.52183149 L8.10736865,6.5204017 C8.86783135,5.31938043 9.30707027,3.89617021 9.30707027,2.37030128 L9.30707027,0.0488987234 C9.30707027,2.6235166 7.22275459,4.71029106 4.65096649,4.71029106" id="path-17"></path>
        <linearGradient x1="31.645162%" y1="83.9418703%" x2="71.5281831%" y2="-21.2254692%" id="linearGradient-19">
            <stop stop-color="#0E7B79" offset="0%"></stop>
            <stop stop-color="#34B3AA" offset="100%"></stop>
        </linearGradient>
    </defs>
    <g id="Archive-04-[Admin]-Recognition" stroke="none" stroke-width="1" fill="none" fill-rule="evenodd">
        <g id="300_Admin_Recognition-Listing" transform="translate(-31.000000, -55.000000)">
            <g id="Group-4">
                <g id="sparrow-icon-header" transform="translate(30.500000, 55.000000)">
                    <g id="Group-63" transform="translate(0.500000, 0.261421)">
                        <g id="Group-21" transform="translate(34.391351, 12.559680)" fill="#35B4AC">
                            <path d="M29.1732415,0.000128680851 L29.1732415,3.31837889 L19.4621799,3.31837889 C18.6013972,3.31837889 17.9746469,3.52927251 17.5816437,3.95105974 C17.1889258,4.37284698 16.9924242,4.91201974 16.9924242,5.56800613 C16.9924242,5.84924528 17.0345215,6.12605209 17.1185734,6.39756868 C17.2029107,6.66951421 17.3524631,6.91343591 17.5678015,7.12876187 C17.7827118,7.34451677 18.0681172,7.51323166 18.4237323,7.63476357 C18.7789194,7.75701038 19.2377085,7.81763336 19.799101,7.81763336 L24.2334448,7.81763336 C25.5246188,7.81763336 26.581475,7.98191591 27.4050123,8.30976613 C28.2281215,8.63804528 28.8785604,9.06469379 29.3556156,9.58928272 C29.8328134,10.1143006 30.1600307,10.7139534 30.337981,11.3889559 C30.5156458,12.0639585 30.6045496,12.7386751 30.6045496,13.4136776 C30.6045496,14.2199346 30.4922426,14.9602785 30.2677712,15.635138 C30.0432999,16.3101406 29.6875421,16.8962104 29.2012112,17.3927755 C28.714595,17.8897695 28.0926966,18.2785287 27.3348026,18.5597678 C26.5770512,18.841007 25.6553345,18.9815551 24.5703658,18.9815551 L14.0173583,18.9815551 L14.0173583,15.6633049 L24.6825302,15.6633049 C25.580701,15.6633049 26.2402729,15.4431176 26.6612458,15.0024572 C27.0823615,14.5622257 27.2927053,13.9948861 27.2927053,13.3011534 C27.2927053,13.0016129 27.2458988,12.7063619 27.1524285,12.4154002 C27.0585302,12.1248674 26.8998448,11.871938 26.6753734,11.6561831 C26.4507594,11.4408572 26.1465172,11.267138 25.7632177,11.1358836 C25.3794902,11.0049151 24.8974404,10.9390019 24.3177821,10.9390019 L19.9112653,10.9390019 C18.6386426,10.9390019 17.600195,10.7800095 16.7959226,10.461024 C15.9912221,10.1424674 15.3597626,9.72068017 14.9014015,9.19551932 C14.4426123,8.67093038 14.1248134,8.08042826 13.9471485,7.42401294 C13.7690556,6.76802655 13.6805799,6.11204017 13.6805799,5.45548187 C13.6805799,4.66809804 13.788035,3.94176613 14.0033734,3.27620017 C14.2182837,2.61092017 14.5646231,2.03442996 15.041821,1.54672953 C15.5188761,1.05945804 16.1314988,0.679849532 16.8801172,0.407904 C17.6283075,0.136387404 18.5263356,0.000128680851 19.5744869,0.000128680851 L29.1732415,0.000128680851 Z" id="Fill-1"></path>
                            <path d="M37.0313656,16.0851779 L43.2900208,16.0851779 C44.5813375,16.0851779 45.5216056,15.7335932 46.1109678,15.0307098 C46.7003299,14.3276834 46.9948683,13.1702706 46.9948683,11.5577566 C46.9948683,9.94567149 46.7003299,8.78354043 46.1109678,8.07079149 C45.5216056,7.35847149 44.5813375,7.00216851 43.2900208,7.00216851 L40.3711797,7.00216851 C39.1546391,7.00216851 38.2944272,7.28326468 37.7892597,7.84588596 C37.2840921,8.40822128 37.0313656,9.33629617 37.0313656,10.6298247 L37.0313656,16.0851779 Z M43.5988294,4.13387234 C45.5635602,4.13387234 47.1214456,4.74810894 48.2720575,5.97572426 C49.4225267,7.20376851 49.997904,9.0646366 49.997904,11.5577566 C49.997904,14.0700357 49.4225267,15.9353362 48.2720575,17.1538009 C47.1214456,18.3725515 45.5635602,18.9816409 43.5988294,18.9816409 L37.0313656,18.9816409 L37.0313656,24.9431387 L34.0564424,24.9431387 L34.0564424,10.4891336 C34.0564424,8.3334434 34.5146608,6.73508426 35.431811,5.69462809 C36.3481051,4.65402894 37.7050651,4.13387234 39.5014067,4.13387234 L43.5988294,4.13387234 Z" id="Fill-3"></path>
                            <path d="M64.4802448,16.0851779 C65.0226577,16.0851779 65.294221,15.8321055 65.294221,15.3258179 L65.294221,12.5420221 L58.3054988,12.5420221 C57.519635,12.5420221 56.9675183,12.6967251 56.6495766,13.0059881 C56.3312069,13.3152511 56.1725215,13.7418996 56.1725215,14.2853617 C56.1725215,14.8293957 56.3312069,15.2653379 56.6495766,15.5931881 C56.9675183,15.9213243 57.500941,16.0851779 58.2494166,16.0851779 L64.4802448,16.0851779 Z M63.0487939,4.13387234 C63.9653734,4.13387234 64.7510945,4.25611915 65.4063853,4.49932596 C66.0609626,4.74324766 66.5990945,5.08553872 67.0200675,5.52577021 C67.4413258,5.96657362 67.7451399,6.48673021 67.9323658,7.08652596 C68.1191637,7.68675064 68.2130621,8.3334434 68.2130621,9.02689021 L68.2130621,16.0008204 C68.2130621,16.5448545 68.1708221,17.0039591 68.0867702,17.3787064 C68.0024329,17.7540255 67.8481712,18.0584272 67.6236999,18.2924834 C67.3990858,18.5272545 67.0854253,18.7004017 66.6834318,18.812783 C66.2808675,18.9253072 65.7712761,18.9816409 65.1536588,18.9816409 L58.2213042,18.9816409 C56.4623507,18.9816409 55.1944372,18.5785838 54.4184199,17.7724698 C53.6416891,16.9664987 53.2536804,15.8602723 53.2536804,14.4542196 C53.2536804,13.779217 53.3421561,13.1794213 53.5202491,12.6544034 C53.6977712,12.1298145 53.9833194,11.6842928 54.3761799,11.3186962 C54.7691831,10.9530996 55.2834837,10.6720034 55.9199377,10.4751217 C56.555821,10.27824 57.3325518,10.1797277 58.2494166,10.1797277 L65.294221,10.1797277 L65.294221,9.05505702 C65.294221,8.47413447 65.1208372,7.98629106 64.7749258,7.59281362 C64.4284437,7.19905021 63.8437907,7.00216851 63.0206815,7.00216851 L54.1517085,7.00216851 L54.1517085,4.13387234 L63.0487939,4.13387234 Z" id="Fill-5"></path>
                            <path d="M82.4987585,4.13388664 L82.4987585,7.00218281 L77.2785509,7.00218281 C76.0057855,7.00218281 75.370045,7.63972494 75.370045,8.91438026 L75.370045,18.9816551 L72.3948363,18.9816551 L72.3948363,8.46456919 C72.3948363,6.96472238 72.6987931,5.86807557 73.306992,5.17434281 C73.9149055,4.48103898 74.949072,4.13388664 76.4083498,4.13388664 L82.4987585,4.13388664 Z" id="Fill-7"></path>
                            <path d="M95.4934806,4.13388664 L95.4934806,7.00218281 L90.2731304,7.00218281 C89.0005077,7.00218281 88.3646244,7.63972494 88.3646244,8.91438026 L88.3646244,18.9816551 L85.3894158,18.9816551 L85.3894158,8.46456919 C85.3894158,6.96472238 85.6933725,5.86807557 86.3017142,5.17434281 C86.9096277,4.48103898 87.9437942,4.13388664 89.403072,4.13388664 L95.4934806,4.13388664 Z" id="Fill-9"></path>
                            <path d="M104.418536,7.00211132 C103.127362,7.00211132 102.187236,7.35855728 101.597874,8.0707343 C101.008512,8.78348323 100.713831,9.9456143 100.713831,11.5576994 C100.713831,13.1703564 101.008512,14.3276262 101.597874,15.0306526 C102.187236,15.733536 103.127362,16.0851207 104.418536,16.0851207 L106.972629,16.0851207 C108.26366,16.0851207 109.203786,15.733536 109.79329,15.0306526 C110.382653,14.3276262 110.677334,13.1703564 110.677334,11.5576994 C110.677334,9.9456143 110.382653,8.78348323 109.79329,8.0707343 C109.203786,7.35855728 108.26366,7.00211132 106.972629,7.00211132 L104.418536,7.00211132 Z M107.253325,4.13381515 C109.218056,4.13381515 110.779937,4.74805174 111.940395,5.97581004 C113.100283,7.2038543 113.680512,9.06472238 113.680512,11.5576994 C113.680512,14.0701215 113.100283,15.935279 111.940395,17.1537437 C110.779937,18.3724943 109.218056,18.9815837 107.253325,18.9815837 L104.13784,18.9815837 C102.154415,18.9815837 100.587396,18.3724943 99.4367844,17.1537437 C98.2860298,15.935279 97.7106525,14.0701215 97.7106525,11.5576994 C97.7106525,9.04570621 98.2860298,7.18054877 99.4367844,5.96165515 C100.587396,4.74333345 102.154415,4.13381515 104.13784,4.13381515 L107.253325,4.13381515 Z" id="Fill-11"></path>
                            <path d="M118.339156,4.13388664 L119.6583,15.7195956 C119.695545,16.0385811 119.793867,16.2776415 119.953123,16.4366339 C120.111809,16.5960551 120.369245,16.6756943 120.725002,16.6756943 C121.061638,16.6756943 121.30937,16.6054917 121.468626,16.4648007 C121.627312,16.3242526 121.74447,16.1229386 121.819389,15.8602866 L123.92454,6.86163472 C124.149011,5.86807557 124.588535,5.11815217 125.243683,4.61186451 C125.898403,4.10571983 126.815268,3.85264749 127.993993,3.85264749 C129.173002,3.85264749 130.07103,4.10571983 130.688505,4.61186451 C131.305837,5.11815217 131.726953,5.86807557 131.951567,6.86163472 L133.944267,15.8602866 C134.056574,16.4040347 134.430598,16.6756943 135.066767,16.6756943 C135.403545,16.6756943 135.646568,16.5960551 135.796548,16.4366339 C135.946101,16.2776415 136.039428,16.0385811 136.077245,15.7195956 L137.62086,4.13388664 L140.848367,4.13388664 L139.19273,15.8883105 C139.042607,16.919616 138.649746,17.7491786 138.01372,18.3769981 C137.377552,19.0049607 136.38591,19.3190849 135.038654,19.3190849 C133.878481,19.3190849 132.980453,19.0660126 132.344427,18.5598679 C131.708116,18.0535803 131.277867,17.2850696 131.053396,16.2539071 L129.060695,7.22708834 C129.00447,6.96472238 128.878179,6.77727728 128.68182,6.66475302 C128.485318,6.55237174 128.246862,6.49603813 127.966023,6.49603813 C127.348548,6.49603813 126.983658,6.73981685 126.871493,7.22708834 L124.766343,16.2539071 C124.523035,17.2850696 124.074092,18.0535803 123.419372,18.5598679 C122.764081,19.0660126 121.847502,19.3190849 120.668778,19.3190849 C119.976384,19.3190849 119.391874,19.2345845 118.914533,19.0660126 C118.437335,18.8972977 118.044618,18.6630986 117.735809,18.3629862 C117.427143,18.0633028 117.188544,17.7019956 117.020155,17.2803513 C116.851766,16.8584211 116.729898,16.3944551 116.655121,15.8883105 L115.111649,4.13388664 L118.339156,4.13388664 Z" id="Fill-13"></path>
                            <path d="M1.48159654,9.57153906 C1.08631005,10.3336157 0.639650595,11.0629501 0.144472216,11.756254 C0.131628973,11.6962029 0.117358703,11.634865 0.103088432,11.5732412 C0.165877622,11.4960327 0.228666811,11.4173944 0.290028973,11.3374693 C0.462699243,11.1158523 0.631088432,10.8869433 0.792342486,10.653888 C0.825164108,10.6081348 0.856558703,10.5625246 0.88652627,10.5166284 C0.923628973,10.4622965 0.960731676,10.4081076 0.996407351,10.3537757 C1.05206141,10.2692752 1.10771546,10.183488 1.16194249,10.0978437 C1.20047222,10.0362199 1.23900195,9.97473906 1.27753168,9.91340119 C1.34602897,9.800448 1.41452627,9.68749481 1.48159654,9.57153906" id="Fill-15"></path>
                            <path d="M1.48159654,9.57153906 C1.08631005,10.3336157 0.639650595,11.0629501 0.144472216,11.756254 C0.131628973,11.6962029 0.117358703,11.634865 0.103088432,11.5732412 C0.165877622,11.4960327 0.228666811,11.4173944 0.290028973,11.3374693 C0.462699243,11.1158523 0.631088432,10.8869433 0.792342486,10.653888 C0.825164108,10.6081348 0.856558703,10.5625246 0.88652627,10.5166284 C0.923628973,10.4622965 0.960731676,10.4081076 0.996407351,10.3537757 C1.05206141,10.2692752 1.10771546,10.183488 1.16194249,10.0978437 C1.20047222,10.0362199 1.23900195,9.97473906 1.27753168,9.91340119 C1.34602897,9.800448 1.41452627,9.68749481 1.48159654,9.57153906" id="Fill-17"></path>
                            <path d="M1.48159654,9.57153906 C1.08631005,10.3336157 0.639650595,11.0629501 0.144472216,11.756254 C0.131628973,11.6962029 0.117358703,11.634865 0.103088432,11.5732412 C0.165877622,11.4960327 0.228666811,11.4173944 0.290028973,11.3374693 C0.462699243,11.1158523 0.631088432,10.8869433 0.792342486,10.653888 C0.825164108,10.6081348 0.856558703,10.5625246 0.88652627,10.5166284 C0.923628973,10.4622965 0.960731676,10.4081076 0.996407351,10.3537757 C1.05206141,10.2692752 1.10771546,10.183488 1.16194249,10.0978437 C1.20047222,10.0362199 1.23900195,9.97473906 1.27753168,9.91340119 C1.34602897,9.800448 1.41452627,9.68749481 1.48159654,9.57153906" id="Fill-19"></path>
                        </g>
                        <path d="M30.0646054,11.6207387 C30.4085189,14.1616136 30.3828324,16.7338009 29.9904,19.2643813 C29.8120216,20.4067813 29.5580108,21.5434621 29.2312216,22.6602689 C29.1655784,22.8846026 29.0970811,23.1062196 29.0257297,23.3292664 C28.8844541,23.7725004 28.7303351,24.2130179 28.5648,24.64896 C28.5476757,24.6947132 28.5291243,24.7420391 28.512,24.7877923 C28.4934486,24.8334026 28.4763243,24.8805855 28.457773,24.9263387 C27.2547892,27.9246026 24.8175697,30.1709413 21.7949838,31.1317583 C21.8092541,31.1287557 21.823667,31.1260391 21.8377946,31.1217498 C21.9804973,31.0917243 22.121773,31.0588391 22.2630486,31.0229515 C22.2987243,31.0158026 22.332973,31.0073668 22.3672216,30.9986451 C22.5170595,30.9629004 22.6654703,30.9244391 22.8140238,30.8856919 C22.8195892,30.8842621 22.8267243,30.8828323 22.8324324,30.8815455 C22.9765622,30.8429413 23.1206919,30.8029072 23.2648216,30.7628732 C23.3090595,30.7498621 23.3532973,30.7385668 23.3975351,30.7242689 C23.4917189,30.6985328 23.5859027,30.669937 23.6786595,30.6411983 C23.9126919,30.5727115 24.1452973,30.4996494 24.3764757,30.4225838 C24.5263135,30.3738281 24.6747243,30.3239285 24.8231351,30.2710264 C24.8259892,30.2710264 24.8274162,30.2695966 24.8288432,30.2695966 C24.9672649,30.2209838 25.1056865,30.1709413 25.2428238,30.1208987 C25.3026162,30.0993089 25.3625514,30.0764323 25.4224865,30.0536987 C25.5494919,30.0063728 25.6779243,29.9563302 25.8049297,29.9062877 C28.0767568,29.0083813 30.2157276,27.7987813 32.1594811,26.309086 C33.9718054,24.9207626 35.6114595,23.284943 37.0186508,21.470686 L37.0186508,11.9997753 C37.0170811,11.9983455 37.0186508,11.9983455 37.0170811,11.9983455 C37.0156541,11.9268562 37.011373,11.8567966 37.0056649,11.7851643 C37.0028108,11.7595711 36.9985297,11.7336919 36.9956757,11.7080987 C36.9942486,11.6880817 36.9913946,11.6693515 36.9885405,11.6494774 C36.9856865,11.6266009 36.9828324,11.6022945 36.9801211,11.5779881 C36.9742703,11.545103 36.9685622,11.5136477 36.9628541,11.4793328 C36.9571459,11.4464477 36.9500108,11.4135626 36.9428757,11.3821072 C36.9357405,11.3420732 36.9271784,11.3034689 36.9171892,11.2648647 C36.9129081,11.2475643 36.908627,11.2305498 36.9043459,11.2148221 C36.6617514,10.2768817 36.0409946,9.46476255 35.1676541,8.99150298 C35.1676541,8.99150298 35.1590919,8.98721362 35.1419676,8.97863489 C35.0734703,8.94003064 34.8893838,8.83994553 34.8708324,8.82979404 C34.8708324,8.82979404 32.1466378,7.27861787 29.0471351,5.51569021 C28.8088216,5.37971745 28.5676541,5.24260085 28.3250595,5.10534128 C29.1754249,7.19854979 29.7649297,9.39756255 30.0646054,11.6207387" id="Fill-22" fill="url(#linearGradient-1)"></path>
                        <g id="Group-29" transform="translate(10.274595, 0.120531)">
                            <mask id="mask-3" fill="white">
                                <use xlink:href="#path-2"></use>
                            </mask>
                            <g id="Clip-28"></g>
                            <path d="M7.12086486,0.398052766 C6.98672432,0.457960851 6.85543784,0.526733617 6.72843243,0.60251234 L6.52436757,0.724044255 C6.49582703,0.73691234 6.46871351,0.749780426 6.44302703,0.766794894 L0.117016216,4.30137191 C1.8851027,4.60148426 3.62464865,5.0776034 5.28856216,5.72258043 C5.57111351,5.83124426 5.85223784,5.94562723 6.13050811,6.06429957 C8.45085405,7.05514213 10.614227,8.37054638 12.5621189,9.97476766 C14.0276757,11.1815081 15.3689384,12.5539609 16.5490897,14.0495183 C16.5563676,14.0568102 16.5620757,14.0639591 16.5677838,14.0709651 C16.6576865,14.1826315 16.7490162,14.299874 16.8360649,14.4185464 L16.8517622,14.4371336 C18.7097514,16.9535591 19.3676108,20.1346928 18.6969081,23.1443949 C18.7482811,22.9815421 18.7996541,22.8184034 18.848173,22.6554077 C18.848173,22.652834 18.8496,22.6484017 18.851027,22.6453991 C18.8966919,22.4925549 18.9409297,22.3395677 18.9837405,22.1864374 C18.9865946,22.1749991 18.9894486,22.1637038 18.9923027,22.1535523 C19.0308324,22.0120034 19.0693622,21.8718843 19.1050378,21.7317651 C19.1177384,21.6847251 19.1292973,21.6375421 19.1422832,21.591646 C19.1735351,21.4645379 19.2050724,21.335714 19.2348973,21.208606 C19.2477405,21.161423 19.2591568,21.114097 19.2691459,21.066914 C19.2976865,20.9483847 19.323373,20.8295694 19.3489168,20.71104 C19.3576216,20.6751523 19.3661838,20.6381209 19.3733189,20.6008034 C19.3961514,20.4994315 19.4161297,20.3964868 19.4375351,20.2935421 C19.4460973,20.2477889 19.4560865,20.2018928 19.4646486,20.1562826 C19.4774919,20.0933719 19.4889081,20.0303183 19.5003243,19.9688374 C19.5245838,19.8401566 19.5488432,19.7116187 19.5702486,19.5829379 C19.5959351,19.4328102 19.6216216,19.2826826 19.6444541,19.1324119 C20.0368865,16.6088374 20.062573,14.0439421 19.7200865,11.5103591 C19.4175568,9.26273362 18.8167784,7.03941447 17.950573,4.92761872 C17.4596757,4.64738043 16.9630703,4.36571234 16.472173,4.08676085 C13.1443459,2.19386553 10.0419892,0.433654468 9.95922162,0.398052766 C9.67795459,0.279237447 9.33132973,0.164997447 8.95744865,0.120674043 C8.92020324,0.114954894 8.88181622,0.11195234 8.85898378,0.110665532 C8.74639135,0.0995131915 8.63465514,0.09408 8.52406054,0.09408 C8.02816865,0.09408 7.55496649,0.20388766 7.12086486,0.398052766" id="Fill-27" fill="url(#linearGradient-4)" mask="url(#mask-3)"></path>
                        </g>
                        <g id="Group-34" transform="translate(0.000000, 4.409893)" fill="url(#linearGradient-5)">
                            <path d="M10.1190486,0.16356766 L8.58784865,1.01986723 L1.87225946,4.77177191 C1.87225946,4.7732017 1.87083243,4.7732017 1.87083243,4.7732017 C1.8108973,4.80894638 1.75096216,4.84755064 1.69245405,4.88615489 C1.67104865,4.90188255 1.64978595,4.91618043 1.62966486,4.93176511 C1.61396757,4.94334638 1.59827027,4.95607149 1.58257297,4.96765277 C1.56245189,4.98052085 1.54404324,4.99481872 1.52406486,5.00897362 C1.49837838,5.02913362 1.47269189,5.05058043 1.44557838,5.07059745 C1.41974919,5.09204426 1.39420541,5.11492085 1.36994595,5.13636766 C1.34012108,5.16210383 1.31001081,5.18784 1.28147027,5.21357617 C1.26862703,5.22630128 1.25578378,5.23931234 1.24294054,5.25075064 C0.54384,5.91703149 0.139848649,6.84910979 0.152691892,7.83723574 L0.152691892,7.86726128 C0.152691892,7.88298894 0.135424865,11.484623 0.117016216,15.4179677 C0.117016216,15.5523677 0.115589189,15.6881974 0.114162162,15.8240272 C0.173954595,15.7482485 0.234032432,15.6724698 0.293967568,15.5981209 C0.358183784,15.5180528 0.423827027,15.4365549 0.48947027,15.3577736 C0.563675676,15.2664102 0.639308108,15.1761906 0.714940541,15.086114 C0.794854054,14.9918911 0.874767568,14.8975251 0.956108108,14.804446 C1.11450811,14.6214332 1.27447784,14.441423 1.43701622,14.2639864 C1.47269189,14.2240953 1.50836757,14.1854911 1.54561297,14.1468868 C1.61396757,14.0725379 1.68246486,13.9996187 1.75238919,13.9252698 C1.76808649,13.9095421 1.78378378,13.8922417 1.79948108,13.8750843 C1.88652973,13.7850077 1.97357838,13.6949311 2.06062703,13.6048545 C2.1491027,13.5149209 2.23772108,13.426274 2.32605405,13.3376272 C2.38456216,13.279006 2.44307027,13.2203847 2.50300541,13.1631932 C2.56864865,13.0988528 2.63429189,13.0345123 2.70150486,12.9716017 C3.06668108,12.6213038 3.44198919,12.2837311 3.82585946,11.9564528 C3.88294054,11.9064102 3.94144865,11.8576545 3.99995676,11.8091847 C4.03420541,11.7791591 4.06988108,11.7505634 4.10555676,11.7219677 C4.17833514,11.6603438 4.25111351,11.6004357 4.32531892,11.5418145 C4.51083243,11.390114 4.6992,11.2414162 4.89042162,11.0955779 C6.83831351,9.60288 8.98313514,8.38913362 11.2620973,7.48979745 C12.987373,6.80778894 14.7954162,6.30593362 16.6377081,5.99566979 L16.6462703,5.99424 C16.6532627,5.99281021 16.6605405,5.99138043 16.6676757,5.98980766 C16.8246486,5.96121191 16.9830486,5.93547574 17.1400216,5.9156017 L17.1514378,5.91417191 C17.161427,5.91259915 17.1699892,5.91116936 17.1785514,5.90973957 C18.9309405,5.68254638 20.7332757,5.90130383 22.3914811,6.54184851 C23.6887914,7.04356085 24.8759351,7.79434213 25.8791351,8.74214809 C24.9315892,7.65979915 23.8954249,6.6548017 22.792333,5.74688681 C22.7881946,5.74402723 22.7839135,5.74116766 22.7839135,5.73973787 C20.8445838,4.14266553 18.6883459,2.83298043 16.3722811,1.84499745 C14.4329514,1.01572085 12.3766054,0.420929362 10.281587,0.0720612766 L10.1190486,0.16356766 Z" id="Fill-32"></path>
                        </g>
                        <g id="Group-39" transform="translate(0.000000, 10.700957)" fill="url(#linearGradient-6)">
                            <path d="M15.2791784,0.0420357447 C15.1650162,0.0676289362 15.0522811,0.0935080851 14.9395459,0.120531064 C14.8255265,0.147697021 14.7126486,0.174862979 14.5999135,0.203601702 C14.4871784,0.23076766 14.3744432,0.259363404 14.2617081,0.289388936 C14.1532541,0.317984681 14.0448,0.348010213 13.937773,0.377892766 C13.9020973,0.386614468 13.8678486,0.396622979 13.8336,0.406631489 C13.7080216,0.440803404 13.5838703,0.478120851 13.4597189,0.515295319 C13.3912216,0.535169362 13.3241514,0.555329362 13.2570811,0.57677617 C13.1885838,0.596650213 13.1213708,0.61824 13.0558703,0.639686809 C13.0259027,0.648122553 12.9973622,0.658274043 12.9673946,0.668282553 C12.9474162,0.673858723 12.9274378,0.679720851 12.9074595,0.686726809 C12.8489514,0.704027234 12.7918703,0.722614468 12.7347892,0.742631489 C12.7290811,0.744061277 12.723373,0.746920851 12.7176649,0.748350638 C12.6448865,0.772657021 12.5721081,0.795533617 12.4993297,0.821269787 C12.4236973,0.847005957 12.3466378,0.872742128 12.2710054,0.899908085 C12.2681514,0.899908085 12.2667243,0.901337872 12.2652973,0.901337872 C12.1268757,0.949950638 11.9884541,0.999993191 11.8514595,1.05003574 C11.7915243,1.07133957 11.7315892,1.09435915 11.6716541,1.11723574 C11.5432216,1.16584851 11.4162162,1.2143183 11.2892108,1.26450383 C9.01452973,2.16241021 6.87684324,3.37201021 4.93323243,4.86184851 C4.6992,5.04057191 4.46802162,5.22358468 4.24112432,5.41217362 C4.14137514,5.49381447 4.04134054,5.57674213 3.94144865,5.66109957 C3.83442162,5.75260596 3.72596757,5.84411234 3.62036757,5.93704851 C3.51334054,6.03141447 3.40631351,6.12435064 3.30214054,6.22014638 C2.88116757,6.59904 2.47161081,6.9935183 2.0748973,7.40115064 C1.9907027,7.48836766 1.90650811,7.57558468 1.82231351,7.66408851 C1.61239784,7.88427574 1.40704865,8.10889532 1.20441081,8.33766128 C1.11022703,8.44346553 1.01747027,8.5505566 0.924713514,8.6593634 C0.840661622,8.75644596 0.757751351,8.85524426 0.674983784,8.95389957 C0.657859459,8.97248681 0.642162162,8.99250383 0.627891892,9.01094809 C0.54384,9.11260596 0.46092973,9.21269106 0.379589189,9.31420596 C0.289543784,9.42572936 0.201210811,9.53725277 0.114162162,9.64877617 C0.112735135,10.1763677 0.109881081,10.7082485 0.107027027,11.2329804 C0.0884756757,15.2964357 0.0713513514,19.09824 0.0713513514,19.09824 L0.0713513514,19.0995268 C0.0727783784,19.1711591 0.0770594595,19.2397889 0.0829102703,19.3112783 C0.0856216216,19.3370145 0.0899027027,19.3626077 0.0913297297,19.3884868 C0.0943264865,19.407074 0.0970378378,19.4269481 0.0998918919,19.4456783 C0.102745946,19.4699847 0.1056,19.4928613 0.108454054,19.5170247 C0.112735135,19.5500528 0.118443243,19.5815081 0.124151351,19.61568 C0.131286486,19.6485651 0.136994595,19.6815932 0.14412973,19.7130485 C0.152691892,19.7530826 0.161254054,19.790257 0.169816216,19.8288613 C0.173954595,19.8458757 0.178378378,19.8630332 0.182659459,19.8789038 C0.425254054,20.8125549 1.04172973,21.6189549 1.90936216,22.0892119 C1.90936216,22.0892119 1.91935135,22.095074 1.93647568,22.1035098 C2.00497297,22.1408272 2.18777514,22.2407694 2.20461405,22.2509209 L8.24536216,25.6866996 L8.72498595,25.9597889 C8.71628108,25.9396289 8.70914595,25.9183251 8.70058378,25.8981651 C8.65777297,25.7925038 8.61638919,25.6852698 8.57643243,25.5780357 C8.32384865,24.9216204 8.09695135,24.2554826 7.89716757,23.58048 C7.85863784,23.4560885 7.82296216,23.3304102 7.78728649,23.2045889 C7.78728649,23.2031591 7.78728649,23.2017294 7.78585946,23.2001566 C7.74875676,23.0671864 7.71293838,22.9343591 7.67740541,22.801246 C7.60605405,22.5340187 7.53898378,22.2650757 7.47762162,21.994846 C7.44622703,21.8605889 7.41483243,21.7246162 7.38629189,21.5902162 C7.35775135,21.4543864 7.32921081,21.3186996 7.3020973,21.1828698 C7.27641081,21.0556187 7.25215135,20.9282247 7.22789189,20.8011166 C7.22503784,20.7853889 7.22218378,20.7710911 7.22075676,20.7567932 C7.19792432,20.6309719 7.17509189,20.5050077 7.15368649,20.3793294 C7.10816432,20.1033804 7.06521081,19.8258587 7.02810811,19.54848 C6.68562162,17.0078911 6.71002378,14.4369906 7.10374054,11.9062672 C7.38914595,10.0777123 7.86862703,8.26459915 8.52934054,6.52025872 C8.54660757,6.47464851 8.56501622,6.42889532 8.58214054,6.38171234 C8.59926486,6.33581617 8.61781622,6.29020596 8.63651027,6.24445277 C9.8364973,3.24747574 12.2724324,1.00142298 15.2948757,0.0391761702 C15.2893103,0.0406059574 15.2848865,0.0406059574 15.2791784,0.0420357447" id="Fill-37"></path>
                        </g>
                        <g id="Group-44" transform="translate(6.849730, 18.564786)" fill="url(#linearGradient-7)">
                            <path d="M1.26020757,0.079067234 C1.21582703,0.219329362 1.17158919,0.360878298 1.13020541,0.500997447 C1.12307027,0.52530383 1.11593514,0.549610213 1.1088,0.572486809 C1.09881081,0.603942128 1.09024865,0.635397447 1.08168649,0.665422979 C1.04886486,0.776803404 1.01747027,0.888469787 0.986075676,0.999993191 C0.978940541,1.02286979 0.973232432,1.0456034 0.967524324,1.07005277 C0.927567568,1.21017191 0.890322162,1.35029106 0.854789189,1.49041021 C0.84636973,1.51757617 0.839091892,1.54617191 0.833383784,1.57462468 C0.793427027,1.7290417 0.754897297,1.8836017 0.719221622,2.03801872 C0.6864,2.17384851 0.655005405,2.3096783 0.626464865,2.44550809 C0.622183784,2.45980596 0.61932973,2.47267404 0.616475676,2.48682894 C0.602205405,2.55417191 0.587935135,2.62265872 0.573664865,2.6900017 C0.515156757,2.96723745 0.462356757,3.24461617 0.412553514,3.52356766 C0.412553514,3.52642723 0.410983784,3.52928681 0.410983784,3.5320034 C0.40812973,3.5434417 0.406702703,3.55488 0.405275676,3.5663183 C0.376735135,3.72802723 0.349621622,3.88945021 0.323935135,4.05244596 C-0.0684972973,6.57745021 -0.0941837838,9.1412017 0.24972973,11.6760715 C0.265427027,11.7918843 0.281124324,11.9091268 0.299675676,12.0250826 C0.3168,12.1407523 0.333924324,12.2581379 0.353902703,12.3738077 C0.372454054,12.4897634 0.392432432,12.6054332 0.412553514,12.721246 C0.429535135,12.8171847 0.446659459,12.9114077 0.463926486,13.0057736 C0.473772973,13.0588187 0.483762162,13.1102911 0.493751351,13.1631932 C0.510875676,13.2475506 0.526572973,13.3319081 0.543697297,13.4161226 C0.590931892,13.6464613 0.640735135,13.8780868 0.694962162,14.1067098 C0.712086486,14.1824885 0.730637838,14.2582672 0.749189189,14.3341889 C0.867632432,14.8317549 1.00177297,15.3264613 1.15018378,15.8168783 C1.20298378,15.9897396 1.25721081,16.161457 1.31286486,16.3330315 C1.33855135,16.4129566 1.36423784,16.4931677 1.39135135,16.571806 C1.42274595,16.6674587 1.45542486,16.7633974 1.48853189,16.8577634 C1.52406486,16.9607081 1.55974054,17.062223 1.59684324,17.1637379 C1.6368,17.2752613 1.67818378,17.3853549 1.71956757,17.4968783 C1.80090811,17.7156357 1.88652973,17.9343932 1.97357838,18.1517209 L1.97500541,18.1517209 L3.38633514,18.9552613 L9.52968649,22.4495183 C9.63100541,22.5081396 9.86503784,22.6555506 10.1732757,22.7856613 L10.17456,22.7856613 C10.4572541,22.9057634 10.8068757,23.0201464 11.1821838,23.0644698 L11.1836108,23.0644698 C11.2207135,23.0701889 11.2606703,23.0730485 11.2835027,23.0743353 C11.9058292,23.1359591 12.499187,23.0242928 13.0360346,22.7856613 C13.1728865,22.7256102 13.304173,22.6568374 13.4326054,22.5812017 C13.4326054,22.5812017 16.4978595,20.8281396 19.8884757,18.8909209 C19.8085622,18.8780528 19.7287914,18.8637549 19.6501622,18.849457 C19.5274378,18.8280102 19.4061405,18.8051336 19.2848432,18.7808272 C19.1849514,18.762097 19.0850595,18.7435098 18.9851676,18.722206 C18.8752865,18.7006162 18.7639784,18.6777396 18.6540973,18.6534332 C18.5442162,18.6291268 18.4343351,18.6049634 18.3244541,18.5792272 C18.1046919,18.5290417 17.8849297,18.4747098 17.6665946,18.4189481 C17.4511135,18.3633294 17.2356324,18.3061379 17.0215784,18.2460868 C17.0187243,18.244657 17.0172973,18.244657 17.0144432,18.2430843 C16.8189405,18.1887523 16.6232951,18.1301311 16.4293622,18.07008 C16.4079568,18.0643609 16.3865514,18.0572119 16.366573,18.050206 C16.2738162,18.0214672 16.1824865,17.9928715 16.0897297,17.9629889 C16.0668973,17.955697 16.0440649,17.9472613 16.0212324,17.9399694 C15.9154897,17.9057974 15.8114595,17.8714826 15.7072865,17.8357379 C15.5003676,17.7655353 15.2950184,17.6927591 15.0893838,17.6169804 C14.9837838,17.579806 14.8781838,17.5397719 14.7740108,17.4997379 C14.7426162,17.4882996 14.7112216,17.4752885 14.6799697,17.4639932 C14.6070486,17.4353974 14.5342703,17.4068017 14.4614919,17.3766332 C14.3573189,17.3351694 14.2531459,17.2938485 14.148973,17.2509549 C14.0448,17.2093481 13.9420541,17.1650247 13.8393081,17.1207013 C11.5189622,16.1314315 9.35558919,14.8158843 7.4076973,13.2103762 C7.31636757,13.1345974 7.22503784,13.0588187 7.13370811,12.9816102 C6.59001081,12.5225055 6.06486486,12.0393804 5.55827027,11.5345226 C5.13587027,11.1157379 4.72774054,10.6810826 4.33530811,10.234846 C4.33388108,10.234846 4.33388108,10.2334162 4.33388108,10.2334162 C4.17690811,10.0546928 4.02278919,9.87468255 3.8700973,9.69152681 C3.71597838,9.50722723 3.56614054,9.32135489 3.41772973,9.13390979 C3.41202162,9.12819064 3.40631351,9.11975489 3.40203243,9.11389277 C3.3107027,9.00093957 3.21937297,8.88369702 3.13375135,8.76659745 L3.11805405,8.74801021 C1.25292973,6.22300596 0.599351351,3.06174638 1.26862703,0.0547608511 C1.26577297,0.0634825532 1.26291892,0.0704885106 1.26020757,0.079067234" id="Fill-42"></path>
                        </g>
                        <g id="Group-49" transform="translate(11.130811, 21.567340)">
                            <mask id="mask-9" fill="white">
                                <use xlink:href="#path-8"></use>
                            </mask>
                            <g id="Clip-48"></g>
                            <path d="M21.0716238,4.79893787 C19.1221622,6.29149277 16.9787676,7.50552511 14.6998054,8.40486128 C12.9759568,9.08529702 11.1679135,9.58872511 9.32419459,9.89898894 L9.31563243,9.90041872 C9.30992432,9.90184851 9.30278919,9.90184851 9.29579676,9.90313532 C9.14010811,9.93187404 8.98028108,9.95761021 8.82173838,9.97762723 L8.80903784,9.98034383 C8.80047568,9.9819166 8.79191351,9.98334638 8.78477838,9.98334638 C7.03238919,10.2121123 5.23005405,9.99335489 3.57184865,9.35266723 C2.26041081,8.84523574 1.06584649,8.08587574 0.0570810811,7.12806128 C0.125578378,7.20669957 0.195502703,7.28519489 0.265427027,7.3624034 C0.33107027,7.43675234 0.398140541,7.50981447 0.465210811,7.58273362 C0.569383784,7.6984034 0.676410811,7.81292936 0.784864865,7.92731234 C0.882045405,8.03011404 0.980367568,8.13162894 1.08025946,8.23314383 C1.1459027,8.30034383 1.21154595,8.36768681 1.27861622,8.43345702 C1.36851892,8.52353362 1.45842162,8.61361021 1.55117838,8.70225702 C1.56116757,8.71226553 1.57115676,8.72213106 1.58114595,8.73228255 C1.68817297,8.83665702 1.79805405,8.94088851 1.90793514,9.04254638 C1.91364324,9.04826553 1.91792432,9.05398468 1.92363243,9.05827404 C1.94218378,9.07528851 1.96230486,9.09401872 1.98214054,9.11103319 C2.06490811,9.18981447 2.1491027,9.26702298 2.23472432,9.34265872 C2.30179459,9.40413957 2.36886486,9.46433362 2.43593514,9.52438468 C2.44021622,9.52867404 2.44592432,9.53282043 2.45020541,9.53710979 C2.55152432,9.62718638 2.65284324,9.71583319 2.75558919,9.80305021 C2.89258378,9.92186553 3.0308627,10.0389651 3.17071135,10.1533481 C5.11303784,11.753423 7.27212973,13.0658247 9.58534054,14.0538077 C9.70663784,14.105423 9.82936216,14.1567523 9.95208649,14.2067949 C10.1975351,14.30688 10.4444108,14.4042485 10.6928562,14.4956119 C10.8040216,14.5372187 10.9167568,14.5785396 11.0280649,14.6185736 C11.0681643,14.6328715 11.1078357,14.6473123 11.1479351,14.6614672 C11.3591351,14.7359591 11.5717622,14.8074485 11.7843892,14.8773651 C11.7972324,14.8817974 11.8100757,14.884657 11.8214919,14.8888034 C11.9484973,14.9302672 12.0755027,14.9704443 12.2025081,15.0089055 C12.3266595,15.0476528 12.4508108,15.0846843 12.5749622,15.1204289 C12.8489514,15.20064 13.1242249,15.2762757 13.3997838,15.3464783 C13.6438054,15.4093889 13.887827,15.4680102 14.1332757,15.5237719 C14.2631351,15.5537974 14.3929946,15.5823932 14.5241384,15.6094162 C14.6541405,15.6380119 14.785427,15.6637481 14.9167135,15.6896272 C15.046573,15.7152204 15.1778595,15.7409566 15.3091459,15.7638332 C15.4404324,15.7881396 15.5702919,15.8111591 15.7015784,15.832606 L15.7030054,15.832606 C15.7429622,15.8111591 15.7814919,15.7881396 15.8214486,15.765263 C16.3380324,15.4708698 16.8603243,15.1719013 17.3783351,14.8745055 C20.9872865,12.8098928 24.4307027,10.8353566 24.4920649,10.7896034 L24.4920649,10.7883166 C24.7346595,10.5995847 25.0015135,10.3522315 25.2227027,10.046257 L25.2241297,10.046257 C25.2469622,10.0176613 25.2683676,9.98463319 25.2812108,9.96475915 C25.6351135,9.45432511 25.8263351,8.88369702 25.8791351,8.30034383 C25.8905514,8.15464851 25.8948324,8.00580766 25.8905514,7.85725277 L25.8834162,7.61976511 C25.88784,7.58973957 25.88784,7.55842723 25.88784,7.52697191 L25.88784,0.0190161702 C24.4892108,1.80925277 22.8652541,3.42476936 21.0716238,4.79893787" id="Fill-47" fill="url(#linearGradient-10)" mask="url(#mask-9)"></path>
                        </g>
                        <g id="Group-54" transform="translate(9.703784, 15.562233)">
                            <mask id="mask-12" fill="white">
                                <use xlink:href="#path-11"></use>
                            </mask>
                            <g id="Clip-53"></g>
                            <path d="M1.53334054,2.99997957 L1.53334054,3.13995574 L0.0313945946,4.41990128 L1.53334054,4.65796085 C1.53334054,8.41658553 4.19974054,11.5521089 7.74147892,12.2715779 C8.24279351,12.3739506 8.76280216,12.4268528 9.29337081,12.4268528 C10.8284238,12.4268528 12.2594465,11.9810451 13.4637146,11.2102468 C10.1796973,10.1799421 7.78643027,7.13006298 7.74147892,3.51127149 C7.73990919,3.47552681 7.73990919,3.44135489 7.73990919,3.40561021 C7.73990919,3.36986553 7.73990919,3.33555064 7.74147892,3.29994894 L7.74147892,3.1429583 C7.74147892,2.28522894 7.39385514,1.50842553 6.83203459,0.945804255 C6.27164108,0.383325957 5.49548108,0.0354587234 4.63740973,0.0354587234 C2.92383568,0.0354587234 1.53334054,1.28452085 1.53334054,2.99997957" id="Fill-52" fill="url(#linearGradient-13)" mask="url(#mask-12)"></path>
                        </g>
                        <g id="Group-57" transform="translate(17.267027, 18.421808)">
                            <mask id="mask-15" fill="white">
                                <use xlink:href="#path-14"></use>
                            </mask>
                            <g id="Clip-56"></g>
                            <path d="M0.137565405,0.440374468 L0.137565405,0.651697021 C0.182516757,4.27048851 2.57578378,7.32036766 5.85994378,8.35067234 C6.82218811,7.73700766 7.63844757,6.91645277 8.25007135,5.9499166 C7.76887784,6.06043915 7.26756324,6.11948936 6.75226378,6.11948936 C3.26946162,6.11948936 0.415264865,3.42662809 0.154547027,0.00529021277 C0.143701622,0.149841702 0.138992432,0.294250213 0.137565405,0.440374468" id="Fill-55" fill="url(#linearGradient-16)" mask="url(#mask-15)"></path>
                        </g>
                        <g id="Group-60" transform="translate(17.409730, 17.849893)">
                            <mask id="mask-18" fill="white">
                                <use xlink:href="#path-17"></use>
                            </mask>
                            <g id="Clip-59"></g>
                            <path d="M4.65096649,4.71029106 C2.23129946,4.71029106 0.244592432,2.86443574 0.0165535135,0.502570213 C0.0149837838,0.525875745 0.0134140541,0.549324255 0.0118443243,0.572629787 L0.0118443243,0.577205106 C0.272562162,3.99854298 3.12675892,6.69140426 6.60956108,6.69140426 C7.12486054,6.69140426 7.62617514,6.63235404 8.10736865,6.52183149 L8.10736865,6.5204017 C8.86783135,5.31938043 9.30707027,3.89617021 9.30707027,2.37030128 L9.30707027,0.0488987234 C9.30707027,2.6235166 7.22275459,4.71029106 4.65096649,4.71029106" id="Fill-58" fill="url(#linearGradient-19)" mask="url(#mask-18)"></path>
                        </g>
                        <path d="M13.9407697,18.6757093 C13.9407697,19.1046454 13.5932886,19.4526557 13.1647524,19.4526557 C12.7362162,19.4526557 12.3887351,19.1046454 12.3887351,18.6757093 C12.3887351,18.2466301 12.7362162,17.8987629 13.1647524,17.8987629 C13.5932886,17.8987629 13.9407697,18.2466301 13.9407697,18.6757093" id="Fill-61" fill="#4A4A4A"></path>
                    </g>
                </g>
            </g>
        </g>
    </g>
</svg>